<?xml version="1.0" encoding="utf-8"?>
<!-- Generator: Adobe Illustrator 16.0.0, SVG Export Plug-In . SVG Version: 6.00 Build 0)  -->
<!DOCTYPE svg PUBLIC "-//W3C//DTD SVG 1.1//EN" "http://www.w3.org/Graphics/SVG/1.1/DTD/svg11.dtd">
<svg version="1.1" id="Layer_1" xmlns="http://www.w3.org/2000/svg" xmlns:xlink="http://www.w3.org/1999/xlink" x="0px" y="0px"
	 width="1500px" height="218.192px" viewBox="0 390.943 1500 218.192" enable-background="new 0 390.943 1500 218.192"
	 xml:space="preserve">
<g enable-background="new    ">
	<path fill="#50E3C2" d="M0,562.169h7.117c2.93,0,7.954-5.024,7.954-7.954V448.298c0-2.931-5.024-7.954-7.954-7.954H0V395.13
		h186.296v72.844H138.99l-7.117-23.862H98.8v30.143h45.632v48.563H98.8v36.003h33.91l6.28-29.305h49.818v76.611H0.418v-43.957H0z"/>
	<path fill="#50E3C2" d="M215.183,562.169h7.117c2.931,0,7.954-5.024,7.954-7.954V448.298c0-2.931-5.023-7.954-7.954-7.954h-7.117
		V395.13h94.195l51.912,94.194h0.837v-48.98h-15.49V395.13h88.753v45.214h-5.861c-2.931,0-7.954,5.023-7.954,7.954v157.828H348.73
		l-57.773-105.079h-0.837v61.122h16.746v43.539H216.02v-43.539H215.183z"/>
	<path fill="#50E3C2" d="M460.927,562.169h7.117c2.93,0,7.954-5.024,7.954-7.954V448.298c0-2.931-5.024-7.954-7.954-7.954h-7.117
		V395.13h105.079c84.566,0,118.477,33.91,118.477,103.823c0,69.914-35.166,107.173-120.988,107.173H460.927V562.169z
		 M563.494,560.075c23.444,0,35.585-18.42,35.585-57.772s-11.304-58.61-35.585-58.61h-3.768v116.802h3.768V560.075z"/>
	<path fill="#50E3C2" d="M706.67,562.169h7.117c2.931,0,7.954-5.024,7.954-7.954V448.298c0-2.931-5.023-7.954-7.954-7.954h-7.117
		V395.13h120.151v45.214h-21.77v118.476h30.561l6.28-34.747h49.818v82.054H706.252L706.67,562.169L706.67,562.169z"/>
	<path fill="#50E3C2" d="M917.667,562.169h7.116c2.931,0,7.955-5.024,7.955-7.954V448.298c0-2.931-5.024-7.954-7.955-7.954h-7.116
		V395.13h185.878v72.844h-47.307l-7.117-23.862h-33.073v30.143h45.633v48.563h-45.633v36.003h33.91l6.28-29.305h49.818v76.611
		h-188.39V562.169L917.667,562.169z"/>
	<path fill="#50E3C2" d="M1183.087,605.708h-50.237v-68.239h53.168l7.117,23.444c3.349,0.418,7.117,0.837,11.303,0.837
		c10.885,0,20.096-3.35,20.096-13.396c0-9.21-7.536-12.56-26.375-17.164c-31.398-7.955-65.309-18.002-65.309-69.495
		c0-52.331,36.004-70.751,81.217-70.751c21.351,0,31.817,1.675,42.283,3.768h41.445v63.216h-52.33l-7.117-22.188
		c-2.512-0.419-5.861-0.419-9.21-0.419c-13.396,0-20.933,4.187-20.933,14.234c0,10.047,9.211,12.141,18.839,14.652
		c58.61,16.327,77.03,30.143,77.03,72.007c0,47.307-24.699,72.844-84.146,72.844C1205.275,609.476,1194.809,608.22,1183.087,605.708
		z"/>
	<path fill="#50E3C2" d="M1379.431,605.708h-50.237v-68.239h53.168l7.117,23.444c3.349,0.418,7.117,0.837,11.303,0.837
		c10.885,0,20.096-3.35,20.096-13.396c0-9.21-7.536-12.56-26.375-17.164c-31.398-7.955-65.309-18.002-65.309-69.495
		c0-52.331,36.004-70.751,81.217-70.751c21.352,0,31.817,1.675,42.283,3.768h41.445v63.216h-52.749l-7.116-22.188
		c-2.512-0.419-5.861-0.419-9.211-0.419c-13.396,0-20.932,4.187-20.932,14.234c0,10.047,9.21,12.141,18.839,14.652
		c58.61,16.327,77.03,30.143,77.03,72.007c0,47.307-24.7,72.844-84.147,72.844C1401.619,609.476,1391.571,608.22,1379.431,605.708z"
		/>
</g>
</svg>
